<svg xmlns="http://www.w3.org/2000/svg" xmlns:svg="http://www.w3.org/2000/svg" id="svg119" width="11cm" height="11cm" version="1.1" viewBox="8 2 218 213"><metadata id="metadata123"/><defs id="defs2"><marker id="marker1482" orient="auto" refX="0" refY="0" style="overflow:visible"><path id="path1480" d="M 0.0,0.0 L 5.0,-5.0 L -12.5,0.0 L 5.0,5.0 L 0.0,0.0 z" style="fill-rule:evenodd;stroke:#9ce1c7;stroke-width:1pt;stroke-opacity:1;fill:#9ce1c7;fill-opacity:1" transform="scale(0.4) rotate(180) translate(10,0)"/></marker><marker id="marker2158" orient="auto" refX="0" refY="0" style="overflow:visible"><path id="path2156" d="M 0.0,0.0 L 5.0,-5.0 L -12.5,0.0 L 5.0,5.0 L 0.0,0.0 z" style="fill-rule:evenodd;stroke:#540f0a;stroke-width:1pt;stroke-opacity:1;fill:#540f0a;fill-opacity:1" transform="scale(0.4) rotate(180) translate(10,0)"/></marker><marker style="overflow:visible" id="marker1918" orient="auto" refX="0" refY="0"><path transform="scale(0.4) rotate(180) translate(10,0)" style="fill-rule:evenodd;stroke:#5f5018;stroke-width:1pt;stroke-opacity:1;fill:#5f5018;fill-opacity:1" id="path1916" d="M 0.0,0.0 L 5.0,-5.0 L -12.5,0.0 L 5.0,5.0 L 0.0,0.0 z"/></marker><marker style="overflow:visible" id="marker1660" orient="auto" refX="0" refY="0"><path transform="scale(0.4) rotate(180) translate(10,0)" style="fill-rule:evenodd;stroke:#000;stroke-width:1pt;stroke-opacity:1;fill:#000;fill-opacity:1" id="path1658" d="M 0.0,0.0 L 5.0,-5.0 L -12.5,0.0 L 5.0,5.0 L 0.0,0.0 z"/></marker><marker id="marker1424" orient="auto" refX="0" refY="0" style="overflow:visible"><path id="path1422" d="M 0.0,0.0 L 5.0,-5.0 L -12.5,0.0 L 5.0,5.0 L 0.0,0.0 z" style="fill-rule:evenodd;stroke:#000;stroke-width:1pt;stroke-opacity:1;fill:#000;fill-opacity:1" transform="scale(0.4) rotate(180) translate(10,0)"/></marker><marker id="marker7432" orient="auto" refX="0" refY="0" style="overflow:visible"><path id="path7430" d="M 0.0,0.0 L 5.0,-5.0 L -12.5,0.0 L 5.0,5.0 L 0.0,0.0 z" style="fill-rule:evenodd;stroke:#b70355;stroke-width:1pt;stroke-opacity:1;fill:#b70355;fill-opacity:1" transform="scale(0.4) rotate(180) translate(10,0)"/></marker><marker id="marker7210" orient="auto" refX="0" refY="0" style="overflow:visible"><path id="path7208" d="M 0.0,0.0 L 5.0,-5.0 L -12.5,0.0 L 5.0,5.0 L 0.0,0.0 z" style="fill-rule:evenodd;stroke:#000;stroke-width:1pt;stroke-opacity:1;fill:#000;fill-opacity:1" transform="scale(0.4) rotate(180) translate(10,0)"/></marker><marker style="overflow:visible" id="marker6910" orient="auto" refX="0" refY="0"><path transform="scale(0.4) rotate(180) translate(10,0)" style="fill-rule:evenodd;stroke:#000;stroke-width:1pt;stroke-opacity:1;fill:#000;fill-opacity:1" id="path6908" d="M 0.0,0.0 L 5.0,-5.0 L -12.5,0.0 L 5.0,5.0 L 0.0,0.0 z"/></marker><marker style="overflow:visible" id="marker6168" orient="auto" refX="0" refY="0"><path transform="scale(0.4) rotate(180) translate(10,0)" style="fill-rule:evenodd;stroke:#000;stroke-width:1pt;stroke-opacity:1;fill:#000;fill-opacity:1" id="path6166" d="M 0.0,0.0 L 5.0,-5.0 L -12.5,0.0 L 5.0,5.0 L 0.0,0.0 z"/></marker><marker style="overflow:visible" id="marker5978" orient="auto" refX="0" refY="0"><path transform="scale(0.2) rotate(180) translate(6,0)" style="fill-rule:evenodd;stroke:#899f9d;stroke-width:1pt;stroke-opacity:1;fill:#899f9d;fill-opacity:1" id="path5976" d="M 0.0,0.0 L 5.0,-5.0 L -12.5,0.0 L 5.0,5.0 L 0.0,0.0 z"/></marker><marker id="marker4374" orient="auto" refX="0" refY="0" style="overflow:visible"><path id="path4372" d="M 0.0,0.0 L 5.0,-5.0 L -12.5,0.0 L 5.0,5.0 L 0.0,0.0 z" style="fill-rule:evenodd;stroke:#000;stroke-width:1pt;stroke-opacity:1;fill:#000;fill-opacity:1" transform="scale(0.2) rotate(180) translate(6,0)"/></marker><marker id="marker4300" orient="auto" refX="0" refY="0" style="overflow:visible"><path id="path4298" d="M 0.0,0.0 L 5.0,-5.0 L -12.5,0.0 L 5.0,5.0 L 0.0,0.0 z" style="fill-rule:evenodd;stroke:#684f0f;stroke-width:1pt;stroke-opacity:1;fill:#684f0f;fill-opacity:1" transform="scale(0.4) rotate(180) translate(10,0)"/></marker><marker style="overflow:visible" id="marker3982" orient="auto" refX="0" refY="0"><path transform="scale(0.4) rotate(180) translate(10,0)" style="fill-rule:evenodd;stroke:#d33114;stroke-width:1pt;stroke-opacity:1;fill:#d33114;fill-opacity:1" id="path3980" d="M 0.0,0.0 L 5.0,-5.0 L -12.5,0.0 L 5.0,5.0 L 0.0,0.0 z"/></marker><marker id="marker3682" orient="auto" refX="0" refY="0" style="overflow:visible"><path id="path3680" d="M 0.0,0.0 L 5.0,-5.0 L -12.5,0.0 L 5.0,5.0 L 0.0,0.0 z" style="fill-rule:evenodd;stroke:#000;stroke-width:1pt;stroke-opacity:1;fill:#000;fill-opacity:1" transform="scale(0.4) rotate(180) translate(10,0)"/></marker><marker style="overflow:visible" id="marker3282" orient="auto" refX="0" refY="0"><path id="path3280" d="M 8.7185878,4.0337352 L -2.2072895,0.016013256 L 8.7185884,-4.0017078 C 6.9730900,-1.6296469 6.9831476,1.6157441 8.7185878,4.0337352 z" transform="scale(0.3) rotate(180) translate(-2.3,0)" style="fill-rule:evenodd;stroke-width:.625;stroke-linejoin:round;stroke:#aa6b05;stroke-opacity:1;fill:#aa6b05;fill-opacity:1"/></marker><marker id="marker3034" orient="auto" refX="0" refY="0" style="overflow:visible"><path id="path3032" style="fill-rule:evenodd;stroke-width:.625;stroke-linejoin:round;stroke:#a93404;stroke-opacity:1;fill:#a93404;fill-opacity:1" d="M 8.7185878,4.0337352 L -2.2072895,0.016013256 L 8.7185884,-4.0017078 C 6.9730900,-1.6296469 6.9831476,1.6157441 8.7185878,4.0337352 z" transform="scale(0.3) rotate(180) translate(-2.3,0)"/></marker><marker style="overflow:visible" id="marker2742" orient="auto" refX="0" refY="0"><path transform="scale(0.4) rotate(180) translate(10,0)" style="fill-rule:evenodd;stroke:#4e1802;stroke-width:1pt;stroke-opacity:1;fill:#4e1802;fill-opacity:1" id="path2740" d="M 0.0,0.0 L 5.0,-5.0 L -12.5,0.0 L 5.0,5.0 L 0.0,0.0 z"/></marker><marker style="overflow:visible" id="marker2566" orient="auto" refX="0" refY="0"><path transform="scale(0.2) rotate(180) translate(6,0)" style="fill-rule:evenodd;stroke:#791407;stroke-width:1pt;stroke-opacity:1;fill:#791407;fill-opacity:1" id="path2564" d="M 0.0,0.0 L 5.0,-5.0 L -12.5,0.0 L 5.0,5.0 L 0.0,0.0 z"/></marker><marker id="marker2436" orient="auto" refX="0" refY="0" style="overflow:visible"><path id="path2434" d="M 0.0,0.0 L 5.0,-5.0 L -12.5,0.0 L 5.0,5.0 L 0.0,0.0 z" style="fill-rule:evenodd;stroke:#d16394;stroke-width:1pt;stroke-opacity:1;fill:#d16394;fill-opacity:1" transform="scale(0.4) rotate(180) translate(10,0)"/></marker><marker id="marker2312" orient="auto" refX="0" refY="0" style="overflow:visible"><path id="path2310" d="M 0.0,0.0 L 5.0,-5.0 L -12.5,0.0 L 5.0,5.0 L 0.0,0.0 z" style="fill-rule:evenodd;stroke:#979070;stroke-width:1pt;stroke-opacity:1;fill:#979070;fill-opacity:1" transform="scale(0.4) rotate(180) translate(10,0)"/></marker><marker style="overflow:visible" id="marker2192" orient="auto" refX="0" refY="0"><path transform="scale(0.4) rotate(180) translate(10,0)" style="fill-rule:evenodd;stroke:#000;stroke-width:1pt;stroke-opacity:1;fill:#000;fill-opacity:1" id="path2190" d="M 0.0,0.0 L 5.0,-5.0 L -12.5,0.0 L 5.0,5.0 L 0.0,0.0 z"/></marker><marker style="overflow:visible" id="marker2066" orient="auto" refX="0" refY="0"><path transform="scale(0.4) rotate(180) translate(10,0)" style="fill-rule:evenodd;stroke:#000;stroke-width:1pt;stroke-opacity:1;fill:#000;fill-opacity:1" id="path2064" d="M 0.0,0.0 L 5.0,-5.0 L -12.5,0.0 L 5.0,5.0 L 0.0,0.0 z"/></marker><marker id="marker1846" orient="auto" refX="0" refY="0" style="overflow:visible"><path id="path1844" d="M 0.0,0.0 L 5.0,-5.0 L -12.5,0.0 L 5.0,5.0 L 0.0,0.0 z" style="fill-rule:evenodd;stroke:#c4700f;stroke-width:1pt;stroke-opacity:1;fill:#c4700f;fill-opacity:1" transform="scale(0.4) rotate(180) translate(10,0)"/></marker><marker id="marker1668" orient="auto" refX="0" refY="0" style="overflow:visible"><path id="path1666" d="M 0.0,0.0 L 5.0,-5.0 L -12.5,0.0 L 5.0,5.0 L 0.0,0.0 z" style="fill-rule:evenodd;stroke:#000;stroke-width:1pt;stroke-opacity:1;fill:#000;fill-opacity:1" transform="scale(0.2) rotate(180) translate(6,0)"/></marker><marker id="marker1584" orient="auto" refX="0" refY="0" style="overflow:visible"><path id="path1582" style="fill-rule:evenodd;stroke-width:.625;stroke-linejoin:round;stroke:#4e1802;stroke-opacity:1;fill:#4e1802;fill-opacity:1" d="M 8.7185878,4.0337352 L -2.2072895,0.016013256 L 8.7185884,-4.0017078 C 6.9730900,-1.6296469 6.9831476,1.6157441 8.7185878,4.0337352 z" transform="scale(0.3) rotate(180) translate(-2.3,0)"/></marker><marker id="Arrow2Send" orient="auto" refX="0" refY="0" style="overflow:visible"><path id="path948" style="fill-rule:evenodd;stroke-width:.625;stroke-linejoin:round;stroke:#f5211a;stroke-opacity:1;fill:#f5211a;fill-opacity:1" d="M 8.7185878,4.0337352 L -2.2072895,0.016013256 L 8.7185884,-4.0017078 C 6.9730900,-1.6296469 6.9831476,1.6157441 8.7185878,4.0337352 z" transform="scale(0.3) rotate(180) translate(-2.3,0)"/></marker><marker id="Arrow1Send" orient="auto" refX="0" refY="0" style="overflow:visible"><path id="path930" d="M 0.0,0.0 L 5.0,-5.0 L -12.5,0.0 L 5.0,5.0 L 0.0,0.0 z" style="fill-rule:evenodd;stroke:#ef6312;stroke-width:1pt;stroke-opacity:1;fill:#ef6312;fill-opacity:1" transform="scale(0.2) rotate(180) translate(6,0)"/></marker><marker id="marker1178" orient="auto" refX="0" refY="0" style="overflow:visible"><path id="path924" d="M 0.0,0.0 L 5.0,-5.0 L -12.5,0.0 L 5.0,5.0 L 0.0,0.0 z" style="fill-rule:evenodd;stroke:#4e1802;stroke-width:1pt;stroke-opacity:1;fill:#4e1802;fill-opacity:1" transform="scale(0.4) rotate(180) translate(10,0)"/></marker><marker id="Arrow1Mend" orient="auto" refX="0" refY="0" style="overflow:visible"><path id="path894" d="M 0.0,0.0 L 5.0,-5.0 L -12.5,0.0 L 5.0,5.0 L 0.0,0.0 z" style="fill-rule:evenodd;stroke:#000;stroke-width:1pt;stroke-opacity:1;fill:#000;fill-opacity:1" transform="scale(0.4) rotate(180) translate(10,0)"/></marker></defs><g id="g48"><g id="g6" transform="translate(1.59908,-0.667216)"><path id="path4" d="m 23.462,80.8758 c 0.4148,0.1008 0.7476,0.2858 0.9984,0.5548 0.2508,0.2662 0.3762,0.566 0.3762,0.8994 0,0.5212 -0.2332,0.9596 -0.6994,1.3154 -0.4662,0.353 -1.0162,0.5296 -1.6496,0.5296 -0.5402,0 -1.024,-0.1036 -1.4518,-0.311 l 0.1544,-0.5674 c 0.447,0.1822 0.889,0.2732 1.3264,0.2732 0.4116,0 0.762,-0.1106 1.0514,-0.332 0.2926,-0.2242 0.439,-0.5114 0.439,-0.8616 0,-0.3446 -0.156,-0.6248 -0.468,-0.8406 C 23.2272,81.3198 22.814,81.212 22.2996,81.212 H 22.0922 V 80.6446 H 22.15 c 0.4952,0 0.9036,-0.1008 1.2252,-0.3026 0.3214,-0.2046 0.4822,-0.4792 0.4822,-0.8238 0,-0.2802 -0.1158,-0.4988 -0.3472,-0.6556 -0.2316,-0.1598 -0.5498,-0.2396 -0.955,-0.2396 -0.3506,0 -0.7428,0.0826 -1.1768,0.248 l -0.1062,-0.5926 c 0.4374,-0.1738 0.8778,-0.2606 1.3216,-0.2606 0.6076,0 1.1076,0.1402 1.5,0.4202 0.3954,0.2774 0.5932,0.6348 0.5932,1.0718 0,0.3026 -0.1206,0.5856 -0.3618,0.849 -0.2378,0.2606 -0.5256,0.4244 -0.8632,0.4918 v 0.0252 m -6.8779,1.534 c -0.4694,0.199 -0.7041,0.374 -0.7041,0.5254 0,0.0812 0.053,0.1498 0.1591,0.206 0.1093,0.056 0.2573,0.084 0.4438,0.084 l 1.6929,-0.042 c 0.4019,0 0.7138,0.0854 0.9357,0.2562 0.225,0.171 0.3376,0.4134 0.3376,0.7272 0,0.496 -0.254,0.891 -0.7621,1.1852 -0.508,0.2942 -1.1013,0.4414 -1.7797,0.4414 -0.5563,0 -1.0113,-0.1024 -1.365,-0.307 -0.3537,-0.2016 -0.5305,-0.4636 -0.5305,-0.7858 0,-0.3502 0.2733,-0.6458 0.8199,-0.8868 -0.4533,-0.185 -0.68,-0.412 -0.68,-0.681 0,-0.3082 0.2926,-0.5954 0.8778,-0.8614 -0.2701,-0.143 -0.4775,-0.328 -0.6222,-0.5548 -0.1447,-0.227 -0.217,-0.4666 -0.217,-0.7188 0,-0.4118 0.1607,-0.7494 0.4823,-1.0128 0.3215,-0.2662 0.7234,-0.3994 1.2057,-0.3994 0.3473,0 0.6608,0.0632 0.9406,0.1892 l 1.4903,-0.1976 v 0.639 h -0.9598 c 0.1447,0.2212 0.217,0.4818 0.217,0.7816 0,0.398 -0.1591,0.7342 -0.4774,1.0088 -0.3184,0.2746 -0.7219,0.4118 -1.2107,0.4118 -0.1028,0 -0.2009,-0.0028 -0.2942,-0.0084 v 0 m 0.2942,-0.5002 c 0.2766,0 0.5017,-0.0826 0.6753,-0.248 0.1768,-0.168 0.2653,-0.3866 0.2653,-0.6556 0,-0.283 -0.0853,-0.5042 -0.2557,-0.664 -0.1704,-0.1598 -0.3987,-0.2396 -0.6849,-0.2396 -0.2668,0 -0.4919,0.084 -0.6752,0.2522 -0.1801,0.1654 -0.2701,0.3824 -0.2701,0.6514 0,0.2634 0.09,0.4806 0.2701,0.6514 0.1833,0.1682 0.4084,0.2522 0.6752,0.2522 v 0 m 0.029,3.375 c 0.4952,0 0.9164,-0.0966 1.2636,-0.29 0.3505,-0.1906 0.5258,-0.4274 0.5258,-0.7104 0,-0.2914 -0.2476,-0.437 -0.7428,-0.437 -0.164,0 -0.4469,0.0084 -0.8489,0.0252 -0.254,0.0112 -0.4533,0.0168 -0.598,0.0168 -0.0708,0 -0.1817,0.0504 -0.3328,0.1514 -0.1479,0.1008 -0.2621,0.2016 -0.3425,0.3026 -0.0771,0.1036 -0.1157,0.21 -0.1157,0.3194 0,0.1708 0.1093,0.3166 0.3279,0.437 0.2187,0.1234 0.5065,0.185 0.8634,0.185 v 0 M 13.3671,79.6822 11.462,84.0616 H 10.7771 L 8.8816,79.6822 h 0.81992 l 1.42278,3.4842 1.4229,-3.4842 h 0.8199 M 24.822,70.4234 h -3.7428 v -0.5002 c 0.9486,-0.9218 1.5644,-1.5396 1.8474,-1.8534 0.283,-0.3138 0.5128,-0.643 0.6896,-0.9878 0.177,-0.3446 0.2654,-0.6878 0.2654,-1.0296 0,-0.3306 -0.1158,-0.5912 -0.3474,-0.7818 -0.2282,-0.1904 -0.5498,-0.2858 -0.9646,-0.2858 -0.3182,0 -0.746,0.0856 -1.283,0.2564 l -0.1108,-0.5926 c 0.4854,-0.1792 0.9936,-0.269 1.524,-0.269 0.6078,0 1.0966,0.15 1.4662,0.4498 0.373,0.297 0.5596,0.6948 0.5596,1.1936 0,0.3558 -0.0964,0.7088 -0.2894,1.059 -0.1898,0.3504 -0.434,0.6866 -0.7332,1.0088 -0.299,0.3222 -0.881,0.8994 -1.7458,1.7316 h 2.8648 v 0.601 m -8.2234,-1.6518 c -0.4694,0.199 -0.7042,0.374 -0.7042,0.5254 0,0.0812 0.0531,0.1498 0.1592,0.206 0.1093,0.056 0.2572,0.084 0.4437,0.084 l 1.6929,-0.042 c 0.402,0 0.7139,0.0854 0.9357,0.2564 0.2251,0.1708 0.3376,0.4132 0.3376,0.727 0,0.496 -0.254,0.891 -0.762,1.1852 -0.508,0.2942 -1.1013,0.4414 -1.7797,0.4414 -0.5563,0 -1.0113,-0.1024 -1.365,-0.3068 -0.3537,-0.2018 -0.5305,-0.4638 -0.5305,-0.786 0,-0.3502 0.2733,-0.6458 0.8199,-0.8868 -0.4534,-0.185 -0.6801,-0.4118 -0.6801,-0.6808 0,-0.3082 0.2926,-0.5954 0.8778,-0.8616 -0.27,-0.143 -0.4774,-0.3278 -0.6221,-0.5548 -0.1447,-0.227 -0.2171,-0.4666 -0.2171,-0.7188 0,-0.4118 0.1608,-0.7494 0.4823,-1.0128 0.3216,-0.2662 0.7235,-0.3992 1.2058,-0.3992 0.3473,0 0.6608,0.063 0.9405,0.189 l 1.4904,-0.1974 v 0.6388 h -0.9598 c 0.1447,0.2212 0.217,0.4818 0.217,0.7816 0,0.398 -0.1591,0.7342 -0.4775,1.0088 -0.3183,0.2746 -0.7218,0.4118 -1.2106,0.4118 -0.1029,0 -0.2009,-0.0028 -0.2942,-0.0084 v 0 m 0.2942,-0.5002 c 0.2765,0 0.5016,-0.0826 0.6753,-0.2478 0.1768,-0.1682 0.2652,-0.3868 0.2652,-0.6558 0,-0.283 -0.0852,-0.5042 -0.2556,-0.664 -0.1704,-0.1596 -0.3987,-0.2396 -0.6849,-0.2396 -0.2669,0 -0.4919,0.0842 -0.6752,0.2522 -0.1801,0.1654 -0.2701,0.3824 -0.2701,0.6514 0,0.2634 0.09,0.4806 0.2701,0.6516 0.1833,0.168 0.4083,0.252 0.6752,0.252 v 0 m 0.029,3.375 c 0.4951,0 0.9164,-0.0966 1.2636,-0.29 0.3505,-0.1906 0.5257,-0.4272 0.5257,-0.7102 0,-0.2914 -0.2476,-0.4372 -0.7427,-0.4372 -0.164,0 -0.447,0.0084 -0.8489,0.0252 -0.254,0.0112 -0.4534,0.0168 -0.5981,0.0168 -0.0707,0 -0.1816,0.0504 -0.3328,0.1514 -0.1479,0.1008 -0.262,0.2016 -0.3424,0.3026 -0.0772,0.1036 -0.1158,0.21 -0.1158,0.3194 0,0.1708 0.1094,0.3166 0.328,0.437 0.2187,0.1234 0.5064,0.185 0.8634,0.185 v 0 M 13.3816,66.044 11.4764,70.4234 H 10.7916 L 8.89606,66.044 H 9.716 l 1.4228,3.4842 1.4228,-3.4842 h 0.82 m 11.5296,-9.2988 h -3.5786 v -0.601 h 1.442 V 51.538 l -1.36,0.5926 v -0.6894 l 1.471,-0.6598 h 0.68 v 5.3628 h 1.3456 v 0.601 m -8.4018,-1.6516 c -0.4695,0.1988 -0.7042,0.374 -0.7042,0.5252 0,0.0814 0.0531,0.15 0.1592,0.206 0.1093,0.056 0.2572,0.084 0.4437,0.084 l 1.6929,-0.042 c 0.4019,0 0.7138,0.0856 0.9357,0.2564 0.2251,0.171 0.3376,0.4134 0.3376,0.7272 0,0.4958 -0.254,0.891 -0.762,1.1852 -0.5081,0.2942 -1.1013,0.4412 -1.7798,0.4412 -0.5562,0 -1.0112,-0.1022 -1.3649,-0.3068 -0.3537,-0.2018 -0.5306,-0.4636 -0.5306,-0.786 0,-0.3502 0.2733,-0.6458 0.82,-0.8868 -0.4534,-0.1848 -0.6801,-0.4118 -0.6801,-0.6808 0,-0.3082 0.2926,-0.5954 0.8778,-0.8616 C 15.6846,54.812 15.4772,54.627 15.3325,54.4 c -0.1447,-0.2268 -0.217,-0.4664 -0.217,-0.7186 0,-0.412 0.1608,-0.7496 0.4823,-1.013 0.3215,-0.2662 0.7235,-0.3992 1.2058,-0.3992 0.3473,0 0.6608,0.063 0.9405,0.1892 l 1.4903,-0.1976 v 0.6388 h -0.9598 c 0.1447,0.2214 0.2171,0.482 0.2171,0.7818 0,0.3978 -0.1592,0.734 -0.4775,1.0086 -0.3183,0.2746 -0.7219,0.412 -1.2106,0.412 -0.1029,0 -0.201,-0.0028 -0.2942,-0.0084 v 0 m 0.2942,-0.5002 c 0.2765,0 0.5016,-0.0826 0.6752,-0.248 0.1769,-0.168 0.2653,-0.3866 0.2653,-0.6556 0,-0.283 -0.0852,-0.5044 -0.2556,-0.664 -0.1704,-0.1598 -0.3987,-0.2396 -0.6849,-0.2396 -0.2669,0 -0.492,0.084 -0.6752,0.2522 -0.1801,0.1652 -0.2701,0.3824 -0.2701,0.6514 0,0.2634 0.09,0.4806 0.2701,0.6514 0.1832,0.1682 0.4083,0.2522 0.6752,0.2522 m 0.0289,3.3748 c 0.4952,0 0.9164,-0.0966 1.2637,-0.2898 0.3505,-0.1906 0.5257,-0.4274 0.5257,-0.7104 0,-0.2914 -0.2476,-0.437 -0.7428,-0.437 -0.1639,0 -0.4469,0.0084 -0.8488,0.0252 -0.254,0.0112 -0.4534,0.0168 -0.5981,0.0168 -0.0707,0 -0.1817,0.0504 -0.3328,0.1512 -0.1479,0.101 -0.262,0.2018 -0.3424,0.3026 -0.0772,0.1038 -0.1158,0.2102 -0.1158,0.3194 0,0.171 0.1093,0.3166 0.328,0.4372 0.2186,0.1232 0.5064,0.1848 0.8633,0.1848 v 0 m -3.5402,-5.6024 -1.9051,4.3794 H 10.7023 L 8.80684,52.3658 h 0.81992 l 1.42284,3.4842 1.4228,-3.4842 z" style="fill:maroon;fill-opacity:1;fill-rule:evenodd;stroke:#fff;stroke-width:.49397001;stroke-opacity:0"/></g><text id="text12" x="30.662" y="15.883" style="font-style:italic;font-weight:400;font-size:11.2889px;font-family:sans-serif;text-anchor:middle;fill:#000;fill-opacity:1;stroke:none" font-size="11.289"><tspan id="tspan8" x="30.662" y="15.883">global</tspan><tspan id="tspan10" x="30.662" y="29.994">roots</tspan></text><text id="text18" x="36.968" y="126.822" style="font-style:italic;font-weight:400;font-size:11.2889px;font-family:sans-serif;text-anchor:middle;fill:#000;fill-opacity:1;stroke:none" font-size="11.289"><tspan id="tspan14" x="36.968" y="126.822">transient</tspan><tspan id="tspan16" x="36.968" y="140.933">roots</tspan></text><text id="text22" x="9.411" y="152.206" style="font-style:italic;font-weight:400;font-size:7.90222px;font-family:'Courier New';text-anchor:start;fill:#f60;fill-opacity:1;stroke:none" font-size="7.902"><tspan id="tspan20" x="9.411" y="152.206">vt1</tspan></text><text id="text26" x="9.02" y="167.155" style="font-style:italic;font-weight:400;font-size:7.90222px;font-family:'Courier New';text-anchor:start;fill:#f60;fill-opacity:1;stroke:none" font-size="7.902"><tspan id="tspan24" x="9.02" y="167.155">vt2</tspan></text><text id="text30" x="9.005" y="182.104" style="font-style:italic;font-weight:400;font-size:7.90222px;font-family:'Courier New';text-anchor:start;fill:#f60;fill-opacity:1;stroke:none" font-size="7.902"><tspan id="tspan28" x="9.005" y="182.104">vt3</tspan></text><text id="text34" x="9.16" y="197.053" style="font-style:italic;font-weight:400;font-size:7.90222px;font-family:'Courier New';text-anchor:start;fill:#f60;fill-opacity:1;stroke:none" font-size="7.902"><tspan id="tspan32" x="9.16" y="197.053">vt4</tspan></text><text id="text38" x="8.996" y="212.002" style="font-style:italic;font-weight:400;font-size:7.90222px;font-family:'Courier New';text-anchor:start;fill:#f60;fill-opacity:1;stroke:none" font-size="7.902"><tspan id="tspan36" x="8.996" y="212.002">vt5</tspan></text><text id="text42" x="150.396" y="85.056" style="font-style:italic;font-variant:normal;font-weight:400;font-stretch:normal;font-size:7.9024px;font-family:Verdana;-inkscape-font-specification:'Verdana, Italic';font-variant-ligatures:normal;font-variant-caps:normal;font-variant-numeric:normal;font-feature-settings:normal;text-align:start;writing-mode:lr-tb;text-anchor:start;fill:#00f;fill-opacity:1;stroke:none" font-size="7.902"><tspan id="tspan6664">#15</tspan></text><text id="text46" x="33.337" y="212.002" style="font-style:normal;font-weight:400;font-size:7.90222px;font-family:'Andale Mono';text-anchor:start;fill:#00f;fill-opacity:1;stroke:none" font-size="7.902"><tspan id="tspan44" x="33.337" y="212.002">#-17</tspan></text><path style="fill:none;stroke:#d16394;stroke-width:.69363639;stroke-linecap:butt;stroke-linejoin:miter;stroke-opacity:1;stroke-miterlimit:4;stroke-dasharray:none;marker-end:url(#marker2436)" id="path3186" d="M 133.84546,102.14167 121.73597,81.167426 132.97603,39.218941"/><path style="fill:none;stroke:#4b0e3c;stroke-width:.69363642;stroke-linecap:butt;stroke-linejoin:miter;stroke-miterlimit:4;stroke-dasharray:none;stroke-opacity:1;marker-end:url(#marker2742)" id="path3272" d="m 124.69837,119.60078 -9.08212,5.24356 1.21678,5.24356"/><text font-size="7.902" style="font-style:italic;font-weight:400;font-size:7.90222px;font-family:Verdana;text-anchor:start;fill:#00f;fill-opacity:1;stroke:none" id="text6658" x="32.027" y="54.235"><tspan id="tspan6656" x="32.027" y="54.235">#123</tspan></text><text id="text6662" x="32.027" y="54.235" style="font-style:italic;font-weight:400;font-size:7.90222px;font-family:Verdana;text-anchor:start;fill:#00f;fill-opacity:1;stroke:none" font-size="7.902"><tspan id="tspan6660" x="32.027" y="54.235">#123</tspan></text><g id="g6680" transform="translate(24.320252,-2.210932)"><rect id="rect6668" width="66.948" height="17.737" x="63.207" y="157.665" style="opacity:.7;fill:none;fill-opacity:1;stroke:#899f9d;stroke-width:1.09223425;stroke-linejoin:bevel;stroke-miterlimit:4;stroke-dasharray:none;stroke-opacity:1"/><text id="text6672" x="67.647" y="169.532" style="font-style:normal;font-variant:normal;font-weight:400;font-stretch:normal;font-size:9.78798px;line-height:1.25;font-family:Arial;-inkscape-font-specification:Arial;font-variant-ligatures:normal;font-variant-caps:normal;font-variant-numeric:normal;font-feature-settings:normal;text-align:start;letter-spacing:0;word-spacing:0;writing-mode:lr-tb;text-anchor:start;fill:#000;fill-opacity:1;stroke:none;stroke-width:.524356" xml:space="preserve"><tspan style="stroke-width:.524356" id="tspan6670" x="67.647" y="169.532">vec <tspan id="tspan6674" style="font-style:normal;font-variant:normal;font-weight:400;font-stretch:normal;font-size:9.78798px;font-family:'Courier New';-inkscape-font-specification:'Courier New, Normal';font-variant-ligatures:normal;font-variant-caps:normal;font-variant-numeric:normal;font-feature-settings:normal;text-align:start;writing-mode:lr-tb;text-anchor:start">1.0 3.0</tspan></tspan></text></g><path style="fill:none;stroke:#350d2f;stroke-width:.69363642;stroke-linecap:butt;stroke-linejoin:miter;stroke-miterlimit:4;stroke-dasharray:none;stroke-opacity:1;marker-end:url(#marker6168)" id="path6682" d="m 145.37512,122.80006 2.62178,13.1089 v 15.73069"/><path style="fill:none;stroke:#2d6018;stroke-width:.69363642;stroke-linecap:butt;stroke-linejoin:miter;stroke-miterlimit:4;stroke-dasharray:none;stroke-opacity:1;marker-end:url(#marker6910)" id="path6900" d="M 26.763311,149.64957 55.602896,120.80998 76.577139,112.94464 84.44248,99.835736"/><path style="fill:none;stroke:#544124;stroke-width:.69363639;stroke-linecap:butt;stroke-linejoin:miter;stroke-opacity:1;stroke-miterlimit:4;stroke-dasharray:none;marker-end:url(#marker7210)" id="path7200" d="M 26.352463,165.0644 68.300949,144.09016 H 99.762314"/><path style="fill:none;stroke:#b70355;stroke-width:.69363639;stroke-linecap:butt;stroke-linejoin:miter;stroke-opacity:1;stroke-miterlimit:4;stroke-dasharray:none;marker-end:url(#marker7432)" id="path7422" d="m 26.352463,180.79508 26.217804,-18.35246 h 34.083145 v 0 0"/><text xml:space="preserve" style="font-style:italic;font-variant:normal;font-weight:400;font-stretch:normal;font-size:9.78798px;line-height:1.25;font-family:'DejaVu Serif';-inkscape-font-specification:'DejaVu Serif, Italic';font-variant-ligatures:normal;font-variant-caps:normal;font-variant-numeric:normal;font-feature-settings:normal;text-align:start;letter-spacing:0;word-spacing:0;writing-mode:lr-tb;text-anchor:start;fill:#000;fill-opacity:1;stroke:none;stroke-width:.524356" id="text1174" x="178.416" y="7.758"><tspan id="tspan1172" x="178.416" y="7.758" style="font-style:italic;font-variant:normal;font-weight:400;font-stretch:normal;font-size:9.78798px;font-family:'DejaVu Serif';-inkscape-font-specification:'DejaVu Serif, Italic';font-variant-ligatures:normal;font-variant-caps:normal;font-variant-numeric:normal;font-feature-settings:normal;text-align:start;writing-mode:lr-tb;text-anchor:start;stroke-width:.524356">working</tspan><tspan x="178.416" y="19.993" style="font-style:italic;font-variant:normal;font-weight:400;font-stretch:normal;font-size:9.78798px;font-family:'DejaVu Serif';-inkscape-font-specification:'DejaVu Serif, Italic';font-variant-ligatures:normal;font-variant-caps:normal;font-variant-numeric:normal;font-feature-settings:normal;text-align:start;writing-mode:lr-tb;text-anchor:start;stroke-width:.524356" id="tspan1176">threads</tspan></text><path style="fill:none;stroke:#8e79ea;stroke-width:1.18909097;stroke-linecap:butt;stroke-linejoin:miter;stroke-miterlimit:4;stroke-dasharray:4.75636381,1.18909095;stroke-dashoffset:0;stroke-opacity:1" id="path1178" d="m 178.79623,23.785277 v 52.435607 h 23.59602 V 23.785277"/><path id="path1180" d="m 178.03523,92.846615 v 52.435605 h 23.59602 V 92.846615" style="fill:none;stroke:#8e79ea;stroke-width:1.18909097;stroke-linecap:butt;stroke-linejoin:miter;stroke-miterlimit:4;stroke-dasharray:4.75636381,1.18909095;stroke-dashoffset:0;stroke-opacity:1"/><text xml:space="preserve" style="font-style:normal;font-variant:normal;font-weight:400;font-stretch:condensed;font-size:8.3897px;line-height:1.25;font-family:Impact;-inkscape-font-specification:'Impact, Condensed';font-variant-ligatures:normal;font-variant-caps:normal;font-variant-numeric:normal;font-feature-settings:normal;text-align:start;letter-spacing:0;word-spacing:0;writing-mode:lr-tb;text-anchor:start;fill:#000;fill-opacity:1;stroke:none;stroke-width:.524356" id="text1184" x="177.084" y="84.931"><tspan id="tspan1182" x="177.084" y="84.931" style="font-style:normal;font-variant:normal;font-weight:400;font-stretch:condensed;font-size:8.3897px;font-family:Impact;-inkscape-font-specification:'Impact, Condensed';font-variant-ligatures:normal;font-variant-caps:normal;font-variant-numeric:normal;font-feature-settings:normal;text-align:start;writing-mode:lr-tb;text-anchor:start;stroke-width:.524356">thread 1</tspan></text><text id="text1188" x="176.703" y="153.231" style="font-style:normal;font-variant:normal;font-weight:400;font-stretch:condensed;font-size:8.3897px;line-height:1.25;font-family:Impact;-inkscape-font-specification:'Impact, Condensed';font-variant-ligatures:normal;font-variant-caps:normal;font-variant-numeric:normal;font-feature-settings:normal;text-align:start;letter-spacing:0;word-spacing:0;writing-mode:lr-tb;text-anchor:start;fill:#000;fill-opacity:1;stroke:none;stroke-width:.524356" xml:space="preserve"><tspan id="tspan1190">thread 2</tspan></text><rect style="opacity:.7;fill:none;fill-opacity:1;stroke:#3f1e05;stroke-width:.7927273;stroke-linejoin:bevel;stroke-miterlimit:4;stroke-dasharray:1.5854546,.7927273;stroke-dashoffset:0;stroke-opacity:1" id="rect1192" width="20.974" height="23.596" x="178.796" y="119.204"/><rect id="rect1194" width="20.974" height="23.596" x="178.986" y="92.759" style="opacity:.7;fill:none;fill-opacity:1;stroke:#3f1e05;stroke-width:.7927273;stroke-linejoin:bevel;stroke-miterlimit:4;stroke-dasharray:1.5854546,.7927273;stroke-dashoffset:0;stroke-opacity:1"/><rect style="opacity:.7;fill:none;fill-opacity:1;stroke:#3f1e05;stroke-width:.7927273;stroke-linejoin:bevel;stroke-miterlimit:4;stroke-dasharray:1.5854546,.7927273;stroke-dashoffset:0;stroke-opacity:1" id="rect1196" width="20.801" height="31.223" x="179.644" y="43.38"/><text xml:space="preserve" style="font-style:oblique;font-variant:normal;font-weight:600;font-stretch:normal;font-size:7.69056px;line-height:1.25;font-family:'Latin Modern Sans Demi Cond';-inkscape-font-specification:'Latin Modern Sans Demi Cond, Semi-Bold Oblique';font-variant-ligatures:normal;font-variant-caps:normal;font-variant-numeric:normal;font-feature-settings:normal;text-align:start;letter-spacing:0;word-spacing:0;writing-mode:lr-tb;text-anchor:start;fill:green;fill-opacity:1;stroke:none;stroke-width:.524356" id="text1186" x="183.888" y="73.889"><tspan id="tspan1184" x="183.888" y="73.889" style="font-style:oblique;font-variant:normal;font-weight:600;font-stretch:normal;font-size:7.69056px;font-family:'Latin Modern Sans Demi Cond';-inkscape-font-specification:'Latin Modern Sans Demi Cond, Semi-Bold Oblique';font-variant-ligatures:normal;font-variant-caps:normal;font-variant-numeric:normal;font-feature-settings:normal;text-align:start;writing-mode:lr-tb;text-anchor:start;fill:green;stroke-width:.524356">cfr1</tspan></text><text id="text1190" x="182.513" y="142.19" style="font-style:oblique;font-variant:normal;font-weight:600;font-stretch:normal;font-size:7.69056px;line-height:1.25;font-family:'Latin Modern Sans Demi Cond';-inkscape-font-specification:'Latin Modern Sans Demi Cond, Semi-Bold Oblique';font-variant-ligatures:normal;font-variant-caps:normal;font-variant-numeric:normal;font-feature-settings:normal;text-align:start;letter-spacing:0;word-spacing:0;writing-mode:lr-tb;text-anchor:start;fill:green;fill-opacity:1;stroke:none;stroke-width:.524356" xml:space="preserve"><tspan id="tspan1192" x="182.513" y="142.19">cfr2</tspan></text><text xml:space="preserve" style="font-style:oblique;font-variant:normal;font-weight:600;font-stretch:normal;font-size:7.69056px;line-height:1.25;font-family:'Latin Modern Sans Demi Cond';-inkscape-font-specification:'Latin Modern Sans Demi Cond, Semi-Bold Oblique';font-variant-ligatures:normal;font-variant-caps:normal;font-variant-numeric:normal;font-feature-settings:normal;text-align:start;letter-spacing:0;word-spacing:0;writing-mode:lr-tb;text-anchor:start;fill:green;fill-opacity:1;stroke:none;stroke-width:.524356" id="text1196" x="183.888" y="114.686"><tspan id="tspan1198" x="183.888" y="114.686">cfr3</tspan></text><text xml:space="preserve" style="font-style:normal;font-variant:normal;font-weight:700;font-stretch:normal;font-size:8.3897px;line-height:1.25;font-family:FreeSerif;-inkscape-font-specification:'FreeSerif, Bold';font-variant-ligatures:normal;font-variant-caps:normal;font-variant-numeric:normal;font-feature-settings:normal;text-align:start;letter-spacing:0;word-spacing:0;writing-mode:lr-tb;text-anchor:start;fill:maroon;fill-opacity:1;stroke:none;stroke-width:.524356" id="text1202" x="188.903" y="65.437"><tspan id="tspan1200" x="188.903" y="65.437" style="font-style:normal;font-variant:normal;font-weight:700;font-stretch:normal;font-size:8.3897px;font-family:FreeSerif;-inkscape-font-specification:'FreeSerif, Bold';font-variant-ligatures:normal;font-variant-caps:normal;font-variant-numeric:normal;font-feature-settings:normal;text-align:start;writing-mode:lr-tb;text-anchor:start;fill:maroon;stroke-width:.524356">lv1</tspan></text><text id="text1206" x="189.132" y="54.206" style="font-style:normal;font-variant:normal;font-weight:700;font-stretch:normal;font-size:8.3897px;line-height:1.25;font-family:FreeSerif;-inkscape-font-specification:'FreeSerif, Bold';font-variant-ligatures:normal;font-variant-caps:normal;font-variant-numeric:normal;font-feature-settings:normal;text-align:start;letter-spacing:0;word-spacing:0;writing-mode:lr-tb;text-anchor:start;fill:maroon;fill-opacity:1;stroke:none;stroke-width:.524356" xml:space="preserve"><tspan id="tspan1208">lv2</tspan></text><text xml:space="preserve" style="font-style:normal;font-variant:normal;font-weight:700;font-stretch:normal;font-size:8.3897px;line-height:1.25;font-family:FreeSerif;-inkscape-font-specification:'FreeSerif, Bold';font-variant-ligatures:normal;font-variant-caps:normal;font-variant-numeric:normal;font-feature-settings:normal;text-align:start;letter-spacing:0;word-spacing:0;writing-mode:lr-tb;text-anchor:start;fill:maroon;fill-opacity:1;stroke:none;stroke-width:.524356" id="text1212" x="188.444" y="131.446"><tspan id="tspan1214" x="188.444" y="131.446">lv3</tspan></text><text id="text1218" x="188.444" y="106.692" style="font-style:normal;font-variant:normal;font-weight:700;font-stretch:normal;font-size:8.3897px;line-height:1.25;font-family:FreeSerif;-inkscape-font-specification:'FreeSerif, Bold';font-variant-ligatures:normal;font-variant-caps:normal;font-variant-numeric:normal;font-feature-settings:normal;text-align:start;letter-spacing:0;word-spacing:0;writing-mode:lr-tb;text-anchor:start;fill:maroon;fill-opacity:1;stroke:none;stroke-width:.524356" xml:space="preserve"><tspan id="tspan1220" x="188.444" y="106.692">lv4</tspan></text><path style="fill:none;stroke:#653510;stroke-width:.69363639;stroke-linecap:butt;stroke-linejoin:miter;stroke-opacity:1;stroke-miterlimit:4;stroke-dasharray:none;marker-end:url(#marker1424)" id="path1222" d="m 186.28107,128.35947 -18.35247,13.10891 -7.86534,13.1089 -5.24356,10.48712"/><path style="fill:none;stroke:#541406;stroke-width:.69363639;stroke-linecap:butt;stroke-linejoin:miter;stroke-opacity:1;stroke-miterlimit:4;stroke-dasharray:none;marker-end:url(#marker1660)" id="path1650" d="m 186.28107,104.76345 -26.21781,5.24356 -13.1089,5.24356"/><path style="fill:none;stroke:#5f5018;stroke-width:.69363639;stroke-linecap:butt;stroke-linejoin:miter;stroke-opacity:1;stroke-miterlimit:4;stroke-dasharray:none;marker-end:url(#marker1918)" id="path1908" d="m 186.28107,62.814964 -23.59603,7.865341 h -10.48712"/><path style="fill:none;stroke:#540f0a;stroke-width:.69363639;stroke-linecap:butt;stroke-linejoin:miter;stroke-opacity:1;stroke-miterlimit:4;stroke-dasharray:none;marker-end:url(#marker2158)" id="path2148" d="M 186.28107,52.327842 165.30682,47.084282 144.33258,36.59716"/><text xml:space="preserve" style="font-style:normal;font-variant:normal;font-weight:400;font-stretch:normal;font-size:9.78798px;line-height:1.25;font-family:Arial;-inkscape-font-specification:Arial;font-variant-ligatures:normal;font-variant-caps:normal;font-variant-numeric:normal;font-feature-settings:normal;text-align:start;letter-spacing:0;word-spacing:0;writing-mode:lr-tb;text-anchor:start;fill:#000;fill-opacity:1;stroke:none;stroke-width:.524356" id="text2402" x="133.851" y="211.323"><tspan id="tspan2400" x="133.851" y="211.323" style="font-style:oblique;font-variant:normal;font-weight:600;font-stretch:normal;font-size:13.9828px;font-family:'Latin Modern Sans Demi Cond';-inkscape-font-specification:'Latin Modern Sans Demi Cond, Semi-Bold Oblique';font-variant-ligatures:normal;font-variant-caps:normal;font-variant-numeric:normal;font-feature-settings:normal;text-align:start;writing-mode:lr-tb;text-anchor:start;fill:#d4aa00;stroke-width:.524356">RefPerSys heap</tspan></text></g><g id="g56" transform="matrix(0.5,0,0,0.5,40.128875,36.161243)"><path id="path50" d="m 129.754,32.3332 h 30.15 c 4.163,0 7.538,4.9249 7.538,11 0,6.0751 -3.375,11 -7.538,11 h -30.15 c -4.163,0 -7.537,-4.9249 -7.537,-11 0,-6.0751 3.374,-11 7.537,-11 z" style="fill:#fff;fill-opacity:1;fill-rule:evenodd;stroke:#000;stroke-width:2;stroke-opacity:1"/><text id="text54" x="144.829" y="47.333" style="font-style:normal;font-weight:400;font-size:12.8px;font-family:sans-serif;text-anchor:middle;fill:#000;fill-opacity:1;stroke:none" font-size="12.8"><tspan id="tspan52" x="144.829" y="47.333">ob1</tspan></text></g><g id="g68" transform="matrix(0.5,0,0,0.5,32.519618,20.285089)"><path id="path62" d="m 186.921,11.6499 h 30.15 c 4.163,0 7.537,4.9249 7.537,11 0,6.0752 -3.374,11 -7.537,11 h -30.15 c -4.163,0 -7.538,-4.9248 -7.538,-11 0,-6.0751 3.375,-11 7.538,-11 z" style="fill:#fff;fill-opacity:1;fill-rule:evenodd;stroke:#000;stroke-width:2;stroke-opacity:1"/><text id="text66" x="201.996" y="26.65" style="font-style:normal;font-weight:400;font-size:12.8px;font-family:sans-serif;text-anchor:middle;fill:#000;fill-opacity:1;stroke:none" font-size="12.8"><tspan id="tspan64" x="201.996" y="26.65">ob2</tspan></text></g><g id="g80" transform="matrix(0.5,0,0,0.5,41.4146,12.075)"><rect id="rect70" width="40" height="40" x="62.829" y="4.15" rx="0" ry="0" style="fill:#fff;fill-opacity:1;stroke:#000;stroke-width:2;stroke-opacity:1"/><line id="line72" x1="66.829" x2="66.829" y1="4.15" y2="44.15" style="fill:none;stroke:#000;stroke-width:2;stroke-opacity:1"/><line id="line74" x1="98.829" x2="98.829" y1="4.15" y2="44.15" style="fill:none;stroke:#000;stroke-width:2;stroke-opacity:1"/><text id="text78" x="82.829" y="28.15" style="font-style:normal;font-weight:400;font-size:12.8px;font-family:sans-serif;text-anchor:middle;fill:#000;fill-opacity:1;stroke:none" font-size="12.8"><tspan id="tspan76" x="82.829" y="28.15">iv1</tspan></text></g><g id="g92" transform="matrix(0.5,0,0,0.5,42.642182,31.047508)"><rect id="rect82" width="40" height="40" x="177.163" y="65.483" rx="0" ry="0" style="fill:#fff;fill-opacity:1;stroke:#000;stroke-width:2;stroke-opacity:1"/><line id="line84" x1="181.163" x2="181.163" y1="65.483" y2="105.483" style="fill:none;stroke:#000;stroke-width:2;stroke-opacity:1"/><line id="line86" x1="213.163" x2="213.163" y1="65.483" y2="105.483" style="fill:none;stroke:#000;stroke-width:2;stroke-opacity:1"/><text id="text90" x="197.163" y="89.483" style="font-style:normal;font-weight:400;font-size:12.8px;font-family:sans-serif;text-anchor:middle;fill:#000;fill-opacity:1;stroke:none" font-size="12.8"><tspan id="tspan88" x="197.163" y="89.483">iv2</tspan></text></g><g id="g108" transform="matrix(0.5,0,0,0.5,37.988812,38.145645)"><rect id="rect98" width="40" height="40" x="93.329" y="80.8" rx="0" ry="0" style="fill:#fff;fill-opacity:1;stroke:#000;stroke-width:2;stroke-opacity:1"/><line id="line100" x1="97.329" x2="97.329" y1="80.8" y2="120.8" style="fill:none;stroke:#000;stroke-width:2;stroke-opacity:1"/><line id="line102" x1="129.329" x2="129.329" y1="80.8" y2="120.8" style="fill:none;stroke:#000;stroke-width:2;stroke-opacity:1"/><text id="text106" x="113.329" y="104.8" style="font-style:normal;font-weight:400;font-size:12.8px;font-family:sans-serif;text-anchor:middle;fill:#000;fill-opacity:1;stroke:none" font-size="12.8"><tspan id="tspan104" x="113.329" y="104.8">iv3</tspan></text></g><g id="g116" transform="matrix(0.5,0,0,0.5,61.230142,29.55817)"><path id="path110" d="m 132.754,145.167 h 43.938 c -6.591,8 -8.788,12 -8.788,20 0,8 2.197,12 8.788,20 h -43.938 c -6.591,-8 -8.787,-12 -8.787,-20 0,-8 2.196,-12 8.787,-20 z" style="fill:#fff;fill-opacity:1;fill-rule:evenodd;stroke:#000;stroke-width:2;stroke-opacity:1"/><text id="text114" x="150.329" y="169.167" style="font-style:normal;font-weight:400;font-size:12.8px;font-family:sans-serif;text-anchor:middle;fill:#000;fill-opacity:1;stroke:none" font-size="12.8"><tspan id="tspan112" x="150.329" y="169.167">tob1</tspan></text></g><g id="g200"><path style="fill:#fff;fill-opacity:1;fill-rule:evenodd;stroke:#000;stroke-width:1;stroke-opacity:1" id="path184" d="m 102.38409,36.59716 h 15.075 c 2.0815,0 3.7685,2.46245 3.7685,5.5 0,3.0376 -1.687,5.5 -3.7685,5.5 h -15.075 c -2.0815,0 -3.768996,-2.4624 -3.768996,-5.5 0,-3.03755 1.687496,-5.5 3.768996,-5.5 z"/><text font-size="12.8" style="font-style:normal;font-variant:normal;font-weight:400;font-stretch:normal;font-size:6.40001px;font-family:sans-serif;-inkscape-font-specification:'sans-serif, Normal';font-variant-ligatures:normal;font-variant-caps:normal;font-variant-numeric:normal;font-feature-settings:normal;text-align:center;writing-mode:lr-tb;text-anchor:middle;fill:#000;fill-opacity:1;stroke:none;stroke-width:.5" id="text188" x="109.922" y="44.097"><tspan id="tspan195">ob3</tspan></text></g><rect style="fill:none;fill-opacity:1;stroke:#000;stroke-width:5.74727294;stroke-miterlimit:4;stroke-dasharray:none;stroke-opacity:0" id="rect1009" width="24.907" height="14.42" x="91.242" y="135.569"/><rect style="fill:none;fill-opacity:1;stroke:#000;stroke-width:5.74727249;stroke-miterlimit:4;stroke-dasharray:none;stroke-opacity:0" id="rect880" width="15.731" height="10.487" x="63.057" y="99.52"/><rect style="fill:none;fill-opacity:1;stroke:#000;stroke-width:5.9454546;stroke-linejoin:bevel;stroke-miterlimit:4;stroke-dasharray:none;stroke-opacity:0" id="rect887" width="26.218" height="13.109" x="84.032" y="110.007"/><g id="Background" transform="matrix(0.10487122,0,0,0.10487122,-0.28483135,102.66602)"><polygon id="polygon908" points="1304 281 1472 350.5 1304 420 968 420 968 281" style="fill:#fff;fill-opacity:1;fill-rule:evenodd;stroke:#000;stroke-width:2;stroke-opacity:1"/></g><text xml:space="preserve" style="font-style:normal;font-variant:normal;font-weight:400;font-stretch:normal;font-size:9.78798px;line-height:1.25;font-family:Arial;-inkscape-font-specification:Arial;font-variant-ligatures:normal;font-variant-caps:normal;font-variant-numeric:normal;font-feature-settings:normal;text-align:start;letter-spacing:0;word-spacing:0;writing-mode:lr-tb;text-anchor:start;fill:#000;fill-opacity:1;stroke:none;stroke-width:.524356" id="text923" x="102.154" y="142.247"><tspan id="tspan921" x="102.154" y="142.247" style="stroke-width:.524356">str1 <tspan style="font-style:normal;font-variant:normal;font-weight:400;font-stretch:normal;font-size:8.3897px;font-family:'Courier New';-inkscape-font-specification:'Courier New, Normal';font-variant-ligatures:normal;font-variant-caps:normal;font-variant-numeric:normal;font-feature-settings:normal;text-align:start;writing-mode:lr-tb;text-anchor:start;fill:#a02c2c" id="tspan925">&quot;abc&quot;</tspan></tspan></text><path style="fill:none;stroke:#de540a;stroke-width:.59454548;stroke-linecap:butt;stroke-linejoin:miter;stroke-opacity:1;marker-end:url(#Arrow1Mend);stroke-miterlimit:4;stroke-dasharray:none" id="path1539" d="m 28.974243,68.058524 34.083145,19.677915 10.58956,39.520771 10.99129,6.34582 14.131444,2.62178"/><path style="fill:none;stroke:#e8c214;stroke-width:.52435607px;stroke-linecap:butt;stroke-linejoin:miter;stroke-opacity:1;marker-end:url(#marker1178)" id="path913" d="M 28.974243,81.167426 72.277902,69.56425 99.762314,62.814964 v 0"/><path style="fill:none;stroke:#ef6312;stroke-width:.69363639;stroke-linecap:butt;stroke-linejoin:miter;stroke-opacity:1;stroke-miterlimit:4;stroke-dasharray:none;marker-end:url(#Arrow1Send)" id="path1210" d="M 99.762314,57.571403 81.409851,44.462501 V 36.59716"/><path style="fill:none;stroke:#f5211a;stroke-width:.69363639;stroke-linecap:butt;stroke-linejoin:miter;stroke-opacity:1;marker-end:url(#Arrow2Send);stroke-miterlimit:4;stroke-dasharray:none" id="path1378" d="m 110.24944,52.327842 c 0,-4.11793 0,-4.11793 0,-4.11793"/><path style="fill:none;stroke:#cf2520;stroke-width:.69363639;stroke-linecap:butt;stroke-linejoin:miter;stroke-opacity:1;stroke-miterlimit:4;stroke-dasharray:none;marker-end:url(#marker1584)" id="path1512" d="m 94.518753,28.731819 h 7.865337 l 3.72554,6.452817"/><path style="fill:none;stroke:#bc6d12;stroke-width:.69363639;stroke-linecap:butt;stroke-linejoin:miter;stroke-opacity:1;stroke-miterlimit:4;stroke-dasharray:none;marker-end:url(#marker1668)" id="path1664" d="m 110.24944,36.59716 2.62178,-4.541057 h 7.86534"/><path style="fill:none;stroke:#fa9c2f;stroke-width:.69363639;stroke-linecap:butt;stroke-linejoin:miter;stroke-opacity:1;stroke-miterlimit:4;stroke-dasharray:none;marker-end:url(#marker1846)" id="path1754" d="m 97.140534,41.840721 h -7.865342 l -3.78789,-6.560817"/><path style="fill:none;stroke:#7e4c13;stroke-width:.69363639;stroke-linecap:butt;stroke-linejoin:miter;stroke-opacity:1;stroke-miterlimit:4;stroke-dasharray:none;marker-end:url(#marker2066)" id="path1950" d="m 102.38409,99.519889 6.05475,10.487121 13.54808,3.6302"/><path style="fill:none;stroke:#c4700f;stroke-width:.69363639;stroke-linecap:butt;stroke-linejoin:miter;stroke-opacity:1;stroke-miterlimit:4;stroke-dasharray:none;marker-end:url(#marker2192)" id="path2182" d="m 94.518753,99.519889 2.621781,18.352461 13.108906,13.1089"/><path style="fill:none;stroke:#791407;stroke-width:.69363639;stroke-linecap:butt;stroke-linejoin:miter;stroke-opacity:1;stroke-miterlimit:4;stroke-dasharray:none;marker-end:url(#marker2566)" id="path2302" d="M 89.275192,78.545646 93.816247,70.680305 104.98484,64.23212"/><path style="fill:none;stroke:#979070;stroke-width:.69363639;stroke-linecap:butt;stroke-linejoin:miter;stroke-opacity:1;stroke-miterlimit:4;stroke-dasharray:none;marker-end:url(#marker2312)" id="path2700" d="m 107.62766,64.29024 7.81917,29.181537 9.2472,11.291673"/><path style="fill:none;stroke:#4e1802;stroke-width:.69363639;stroke-linecap:butt;stroke-linejoin:miter;stroke-opacity:1;stroke-miterlimit:4;stroke-dasharray:none;marker-end:url(#marker4374)" id="path2720" d="m 105.00587,89.032768 h 15.73069 l 9.08211,-5.243561 v 0"/><path style="fill:none;stroke:#a93404;stroke-width:.69363642;stroke-linecap:butt;stroke-linejoin:miter;stroke-miterlimit:4;stroke-dasharray:none;stroke-opacity:1;marker-end:url(#marker3034)" id="path3024" d="m 112.98289,64.320055 2.62178,9.784621 h 14.11446"/><path style="fill:none;stroke:#407f8e;stroke-width:.69363639;stroke-linecap:butt;stroke-linejoin:miter;stroke-opacity:1;stroke-miterlimit:4;stroke-dasharray:none;marker-end:url(#marker3682)" id="path3494" d="M 136.46724,102.14167 V 83.789207"/><path style="fill:none;stroke:#d33114;stroke-width:.69363642;stroke-linecap:butt;stroke-linejoin:miter;stroke-miterlimit:4;stroke-dasharray:none;stroke-opacity:1;marker-end:url(#marker3982)" id="path3972" d="m 140.88603,101.47166 2.56838,-15.730687"/><path style="fill:none;stroke:#aa6b05;stroke-width:.69363639;stroke-linecap:butt;stroke-linejoin:miter;stroke-opacity:1;stroke-miterlimit:4;stroke-dasharray:none;marker-end:url(#marker3282)" id="path4218" d="M 133.84546,62.814964 V 49.706062 l -11.662,-6.733058"/><path style="fill:none;stroke:#684f0f;stroke-width:.34030446;stroke-linecap:butt;stroke-linejoin:miter;stroke-miterlimit:4;stroke-dasharray:none;stroke-opacity:1;marker-end:url(#marker4300)" id="path4550" d="m 130.26098,38.452295 -5.58968,5.489165 -3.49814,1.803837"/><path style="fill:none;stroke:#899f9d;stroke-width:.69363642;stroke-linecap:butt;stroke-linejoin:miter;stroke-miterlimit:4;stroke-dasharray:none;stroke-opacity:1;marker-end:url(#marker5978)" id="path5968" d="m 130.33033,84.278977 -17.22344,17.223443 -7.7559,28.94543 1.38332,-0.24828 -1.47067,1.15358"/><g id="g1468" transform="matrix(0.5,0,0,0.5,-20.892769,50.018602)"><rect style="fill:#fff;fill-opacity:1;stroke:#000;stroke-width:2;stroke-opacity:1" id="rect1458" width="40" height="40" x="93.329" y="80.8" rx="0" ry="0"/><line style="fill:none;stroke:#000;stroke-width:2;stroke-opacity:1" id="line1460" x1="97.329" x2="97.329" y1="80.8" y2="120.8"/><line style="fill:none;stroke:#000;stroke-width:2;stroke-opacity:1" id="line1462" x1="129.329" x2="129.329" y1="80.8" y2="120.8"/><text font-size="12.8" style="font-style:normal;font-variant:normal;font-weight:400;font-stretch:normal;font-size:12.8px;font-family:sans-serif;-inkscape-font-specification:'sans-serif, Normal';font-variant-ligatures:normal;font-variant-caps:normal;font-variant-numeric:normal;font-feature-settings:normal;text-align:center;writing-mode:lr-tb;text-anchor:middle;fill:#a18c0a;fill-opacity:1;stroke:none" id="text1466" x="113.329" y="104.8"><tspan id="tspan1470">iv4</tspan></text><path style="fill:none;stroke:#9ce1c7;stroke-width:1.38727287;stroke-linecap:butt;stroke-linejoin:miter;stroke-opacity:1;stroke-miterlimit:4;stroke-dasharray:none;marker-end:url(#marker1482);stroke-dashoffset:0" id="path1472" d="m 134.95976,99.002586 32.94056,-2.465291 41.94849,-13.265392"/></g></svg>